<svg width="170" height="65" viewBox="0 0 170 65" fill="none" xmlns="http://www.w3.org/2000/svg">
<path d="M65.1935 35.9749C65.3182 24.9751 56.3189 17.4765 46.7578 17.4765C36.1339 17.4765 27.8247 25.2884 27.8247 35.8496C27.8247 45.5988 36.5112 53.9107 46.2604 53.9107C57.3196 53.9107 65.0682 45.2241 65.1935 35.9749ZM58.6943 35.6003C58.7063 37.2286 58.3945 38.843 57.7769 40.3497C57.1594 41.8565 56.2484 43.2253 55.0969 44.3768C53.9455 45.5282 52.5766 46.4392 51.0699 47.0567C49.5632 47.6743 47.9488 47.9861 46.3204 47.9741C39.7585 47.9741 34.3206 42.2248 34.3206 35.6629C34.34 32.4418 35.6197 29.3564 37.8856 27.067C40.1516 24.7776 43.2237 23.4663 46.4444 23.4138C48.0507 23.404 49.6431 23.7122 51.1297 24.3205C52.6164 24.9289 53.968 25.8254 55.1066 26.9584C56.2453 28.0914 57.1485 29.4386 57.7642 30.9222C58.38 32.4058 58.696 33.9966 58.6943 35.6029V35.6003ZM78.13 64.5998L97.253 18.4165H90.2531L79.8166 45.2894L69.6301 18.4165H62.6302L76.4413 52.3493L71.3794 64.5985L78.13 64.5998ZM101.19 33.5403C101.69 27.603 107.002 23.4164 112.314 23.4164C117.876 23.4164 123.063 27.6664 123.563 33.5403H101.19ZM129.876 38.5362C130.028 37.4599 130.091 36.3729 130.063 35.2863C130.087 32.9304 129.638 30.5936 128.744 28.4139C127.85 26.2342 126.528 24.2558 124.856 22.5956C123.184 20.9353 121.197 19.6268 119.011 18.7474C116.826 17.8679 114.486 17.4353 112.13 17.4752C102.944 17.4752 94.6944 25.0997 94.6944 36.0362C94.6944 45.2854 102.569 53.91 112.318 53.91C115.96 53.8945 119.509 52.7587 122.483 50.6568C125.457 48.5549 127.712 45.5886 128.942 42.1608H122.443C121.477 43.9322 120.048 45.4083 118.309 46.4318C116.57 47.4553 114.586 47.9878 112.569 47.9727C107.257 47.9727 102.695 44.2855 101.195 38.5362H129.876ZM138.687 53.036V33.6029C138.687 27.791 141.562 24.3537 147.186 24.1664V17.4765C142.624 17.7265 139.937 19.2265 138.374 21.5385H138.25V18.4138H132.188V53.036H138.687ZM169.185 27.603C169 21.4765 164.31 17.4765 158.561 17.4765C152.874 17.4765 147.687 21.5385 147.687 27.663C147.687 31.6003 149.124 35.2876 157.623 37.9749C161.685 39.2875 163.498 40.8495 163.498 43.2241C163.498 46.0361 161.498 47.9734 158.498 47.9734C155.061 47.9734 152.936 45.8488 152.624 41.6615H146.124C146.124 49.6614 152.124 53.9107 158.373 53.9107C165.123 53.9107 170 49.5361 170 42.8495C170 36.4122 165.501 33.4756 160.626 31.9756C157.189 30.913 154.189 30.0383 154.189 27.101C154.189 25.1011 155.751 23.4138 158.251 23.4138C160.938 23.4138 162.375 25.1011 162.688 27.601L169.185 27.603Z" fill="#D69E3A"/>
<path d="M8.62506 63.6333C8.51744 63.316 8.5312 62.97 8.66367 62.6622C8.79614 62.3545 9.03794 62.1066 9.34238 61.9667C10.4828 61.3116 11.5709 60.5694 12.597 59.7467C14.9303 57.7194 16.1003 55.0294 16.6383 52.0375C17.1756 48.8248 17.4386 45.5722 17.4243 42.3149C17.4656 35.6261 17.4878 28.9329 17.4909 22.2352C17.4909 20.4639 17.4623 17.624 17.4536 15.8606H17.4429C17.4143 15.4607 17.2243 15.0153 16.8823 14.964C16.6235 14.9227 16.3616 14.904 16.0996 14.908C15.3695 14.9719 14.6345 14.9495 13.9096 14.8413C13.4151 14.7787 12.9296 14.6586 12.463 14.4833C11.8837 14.2767 11.7297 14.1387 11.1817 13.946C10.7463 13.815 10.3001 13.7229 9.84837 13.6707C9.01104 13.5427 8.18594 13.3447 7.38174 13.0787C6.88575 12.8994 6.40376 12.7067 6.34842 12.6787C6.05909 12.5547 5.82443 12.444 5.52177 12.2927C5.15255 12.0893 4.77066 11.9098 4.37845 11.7554C3.95179 11.604 3.96579 11.6734 3.53847 11.5214C3.14523 11.3844 2.7704 11.1995 2.42248 10.9707C2.15062 10.8106 1.90056 10.6161 1.67849 10.3921C1.63716 10.3507 1.54049 10.2547 1.40316 10.1307C1.27917 10.0341 1.23783 10.0201 1.01717 9.8694C0.820635 9.7559 0.639962 9.61692 0.479844 9.45607C0.383845 9.31807 0.383845 9.24874 0.27318 9.16674C0.18722 9.11827 0.112297 9.05243 0.0531837 8.97341C0.0531837 8.95941 0.0258507 8.90675 0.0118509 8.86275C-0.00655085 8.78587 -0.0034742 8.70542 0.0207448 8.63018C0.0449639 8.55494 0.0893939 8.48779 0.149182 8.43609C0.27318 8.38075 0.383845 8.46342 0.700507 8.46342C0.811172 8.46342 0.811172 8.44942 0.907171 8.44942C1.10301 8.46188 1.29258 8.52331 1.4585 8.62808C1.56687 8.67761 1.67257 8.73279 1.77516 8.79342C2.17515 9.00008 2.22982 8.97208 2.69781 9.19341C2.91839 9.32598 3.15407 9.43162 3.3998 9.50807C3.58976 9.54976 3.78541 9.559 3.97846 9.5354C3.97371 9.48405 3.96457 9.4332 3.95113 9.38341C3.93442 9.30155 3.89622 9.22562 3.84046 9.16341C3.79492 9.09787 3.76291 9.02389 3.74631 8.94582C3.72971 8.86775 3.72886 8.78715 3.7438 8.70875C3.78513 8.55675 3.90913 8.36409 4.07712 8.36409C4.135 8.37235 4.19013 8.39409 4.23807 8.42755C4.28601 8.46102 4.32541 8.50527 4.35312 8.55675C4.4374 8.67761 4.49802 8.81333 4.53178 8.95675C4.64245 9.23208 4.73845 9.21808 4.90378 9.49407C5.08244 9.79673 5.02778 10.0727 5.15178 10.3201C5.26244 10.5407 5.4271 10.6101 5.86843 10.7867C6.67039 11.0555 7.50417 11.2178 8.34839 11.2694C9.09597 11.3161 9.83808 11.4276 10.5664 11.6027C10.9085 11.7568 11.27 11.8633 11.641 11.9194C11.862 11.9705 12.09 11.9845 12.3157 11.9607C13.6037 11.5871 14.9436 11.4241 16.2836 11.478C16.6292 11.4657 16.9698 11.3912 17.2889 11.258C18.5191 10.8046 19.8179 10.5653 21.1289 10.5507C22.4399 10.5654 23.7386 10.8046 24.9688 11.258C25.288 11.3912 25.6285 11.4657 25.9741 11.478C27.3141 11.4241 28.6541 11.5871 29.9421 11.9607C30.1677 11.9845 30.3957 11.9705 30.6167 11.9194C30.9877 11.8633 31.3493 11.7568 31.6914 11.6027C32.4197 11.4276 33.1618 11.3161 33.9093 11.2694C34.7536 11.2178 35.5874 11.0555 36.3893 10.7867C36.83 10.6081 36.9953 10.5387 37.106 10.3201C37.2293 10.0721 37.1726 9.79673 37.354 9.49407C37.5193 9.21808 37.6153 9.23208 37.726 8.95675C37.7597 8.8132 37.8206 8.67743 37.9053 8.55675C37.9328 8.50522 37.972 8.46091 38.0199 8.42743C38.0677 8.39394 38.1228 8.37224 38.1806 8.36409C38.3459 8.36409 38.4699 8.55675 38.5139 8.70875C38.5289 8.78715 38.528 8.86775 38.5114 8.94582C38.4948 9.02389 38.4628 9.09787 38.4173 9.16341C38.3615 9.22562 38.3233 9.30155 38.3066 9.38341C38.2932 9.4332 38.284 9.48405 38.2793 9.5354C38.4723 9.55899 38.668 9.54974 38.8579 9.50807C39.104 9.43104 39.3399 9.32472 39.5606 9.19141C40.0273 8.97075 40.0839 8.99808 40.4833 8.79142C40.5858 8.73079 40.6915 8.67561 40.7999 8.62608C40.9658 8.52131 41.1554 8.45988 41.3512 8.44742C41.4472 8.44742 41.4472 8.46142 41.5579 8.46142C41.8746 8.46142 41.9852 8.37875 42.1092 8.43409C42.169 8.48579 42.2134 8.55293 42.2377 8.62818C42.2619 8.70342 42.265 8.78387 42.2466 8.86075C42.2326 8.90208 42.2052 8.95741 42.2052 8.97141C42.146 9.0503 42.0711 9.11612 41.9852 9.16474C41.8746 9.24674 41.8746 9.31607 41.7779 9.45407C41.618 9.61517 41.4373 9.75417 41.2406 9.8674C41.0206 10.0187 40.9792 10.0327 40.8546 10.1287C40.7166 10.2527 40.6206 10.3487 40.5792 10.3901C40.357 10.614 40.107 10.8085 39.8353 10.9687C39.4873 11.1974 39.1125 11.3823 38.7193 11.5194C38.292 11.6714 38.3059 11.602 37.8786 11.7534C37.4864 11.9077 37.1045 12.0872 36.7353 12.2907C36.432 12.442 36.198 12.552 35.9087 12.6767C35.8533 12.704 35.3713 12.8967 34.8753 13.0767C34.0711 13.3427 33.246 13.5407 32.4087 13.6687C31.957 13.7208 31.5108 13.813 31.0754 13.944C30.5241 14.1373 30.3727 14.2773 29.7941 14.4813C29.3274 14.6565 28.8419 14.7766 28.3474 14.8393C27.6224 14.9475 26.8871 14.9699 26.1568 14.906C25.8941 14.9016 25.6316 14.9202 25.3721 14.9613C25.0308 15.012 24.8388 15.4553 24.8115 15.858C24.8115 23.4665 24.8241 32.4177 24.7975 40.009C24.8719 43.4987 24.5011 46.9836 23.6942 50.3795C22.7075 54.0623 20.6366 57.3636 17.7503 59.8547C15.8148 61.6577 13.573 63.1008 11.1304 64.116C10.8684 64.2126 10.6057 64.3233 10.3304 64.406C10.1802 64.4503 10.0243 64.4728 9.86771 64.4726C9.59932 64.4779 9.33587 64.4001 9.11342 64.2498C8.89097 64.0996 8.72039 63.8842 8.62506 63.6333ZM21.1329 7.3341C20.6464 7.33652 20.1644 7.24111 19.7155 7.05353C19.2667 6.86596 18.8601 6.59006 18.52 6.24223C18.1798 5.8944 17.9131 5.48174 17.7357 5.02877C17.5582 4.57581 17.4736 4.09179 17.4869 3.60549C17.489 3.12801 17.5855 2.65566 17.7708 2.21562C17.9562 1.77558 18.2267 1.37654 18.5669 1.04145C18.907 0.706375 19.3101 0.441874 19.7529 0.263174C20.1957 0.0844741 20.6694 -0.00489601 21.1469 0.000206818C22.1193 -0.00129605 23.0525 0.383566 23.7412 1.07013C24.4299 1.75669 24.8176 2.68871 24.8191 3.66115C24.8207 4.6336 24.4358 5.56682 23.7492 6.2555C23.0627 6.94419 22.1307 7.33193 21.1582 7.33344L21.1329 7.3341Z" fill="#D69E3A"/>
</svg>
