<?xml version="1.0" encoding="UTF-8"?>
<svg version="1.1" xmlns="http://www.w3.org/2000/svg" width="339" height="462">
<path d="M0 0 C7.08545867 -0.83358337 11.74192203 1.42989694 18.046875 4.58984375 C20.42742127 5.72658608 22.43002627 6.50721377 25 7 C25 5.02 25 3.04 25 1 C26.65 0.67 28.3 0.34 30 0 C30.79550392 1.39365 31.58621838 2.79003431 32.375 4.1875 C32.84035156 5.00863281 33.30570313 5.82976562 33.78515625 6.67578125 C35 9 35 9 35.8125 11.875 C37.41169871 14.736724 39.41454381 15.21657516 42.41235352 16.27734375 C47.69315554 17.75212194 53.13653459 18.34786065 58.5625 19.0625 C71.92779368 20.86042443 71.92779368 20.86042443 76.0234375 22.140625 C79.03457413 23.00998203 80.98470204 23.10287761 84.0625 22.6875 C85.25552734 22.53861328 85.25552734 22.53861328 86.47265625 22.38671875 C88.25137468 22.11455009 90.0247895 21.80650828 91.79296875 21.47265625 C94.88301375 21.01724158 97.89299864 20.88233269 101.01245117 20.81054688 C108.43935699 20.60957877 115.07968937 19.68022043 122.1875 17.5 C137.60338009 12.82353384 152.48377015 13.24284631 167.875 18.0625 C173.98066734 19.93850436 179.61262752 20.47387994 185.94238281 20.70507812 C190.77798589 20.88705126 195.23946062 21.5332711 199.94921875 22.578125 C204.84705167 23.5856792 208.85081999 23.10848286 213.5625 21.6875 C220.21315208 19.72001542 226.9846423 18.96941164 233.85571289 18.1784668 C240.15520804 17.40946957 245.98213789 16.01437443 252 14 C252.061875 13.175 252.12375 12.35 252.1875 11.5 C253.19547662 7.15794686 254.91226523 3.27915768 258 0 C259.32 0 260.64 0 262 0 C262 2.31 262 4.62 262 7 C264.08429193 6.21086057 266.16739869 5.41859037 268.25 4.625 C269.99023438 3.96371094 269.99023438 3.96371094 271.765625 3.2890625 C274.86739475 2.1232616 274.86739475 2.1232616 277.15625 0.84375 C279.33150976 -0.15170786 280.8720633 -0.20426456 283.25 -0.125 C284.4875 -0.08375 285.725 -0.0425 287 0 C287.75 2.1875 287.75 2.1875 288 5 C285.1351147 9.85784899 280.52912606 12.81104315 276 16 C275.30777344 16.51949219 274.61554688 17.03898437 273.90234375 17.57421875 C268.8857809 21.18869326 264.06797204 23.14173441 258.171875 24.9375 C254.80492837 26.06534419 251.70202973 27.46792836 248.5 29 C238.60606415 33.65459393 228.837386 36.31731961 218.16113281 38.42358398 C211.8021289 39.72093774 205.93865661 41.59254689 199.8828125 43.94921875 C193.07160316 46.43189532 186.21704887 46.28808854 179.04101562 46.4296875 C177.73100586 46.47609375 177.73100586 46.47609375 176.39453125 46.5234375 C175.20114136 46.5531665 175.20114136 46.5531665 173.98364258 46.58349609 C171.59928554 46.84240305 171.59928554 46.84240305 170 50 C169.80367031 52.47019711 169.72338373 54.8280086 169.73498535 57.29850769 C169.73060408 58.04776168 169.72622281 58.79701566 169.72170877 59.56897432 C169.70935596 62.08795386 169.71119924 64.60672603 169.71289062 67.12573242 C169.70686749 68.92957875 169.69994352 70.73342227 169.69218445 72.53726196 C169.67726935 76.42993687 169.66853925 80.32256025 169.66447449 84.21526146 C169.65775367 90.3928525 169.63598228 96.57033448 169.61193848 102.74787903 C169.56290976 115.89439369 169.53073604 129.04093184 169.5 142.1875 C169.46684903 156.30994375 169.43048654 170.43234502 169.37586927 184.55472451 C169.35652258 189.67733556 169.34117501 194.79989096 169.33552551 199.92253685 C169.2757006 252.29513831 169.2757006 252.29513831 164.75 274.4375 C164.53384033 275.51821777 164.31768066 276.59893555 164.0949707 277.71240234 C155.99705145 316.44961465 132.12444558 346.86180611 99.38085938 368.50244141 C74.65043019 384.05786108 74.65043019 384.05786108 62 382 C59.21396107 379.87730367 58.2841766 378.49948502 57.6328125 375.0625 C57.40110552 371.46422694 57.5748933 369.66909024 59.55859375 366.546875 C62.58050239 363.39441991 65.81281733 361.43661814 69.5625 359.25 C91.69362172 345.81799009 104.37268978 328.24281217 110.75390625 303.375 C116.67312026 278.68873424 117.27589342 252.87567758 117.4140625 227.60546875 C117.43300172 225.34060569 117.4526753 223.07574867 117.47302246 220.81089783 C117.52431771 214.83246174 117.56431461 208.85400515 117.60129547 202.87546539 C117.63320451 197.91103669 117.67132217 192.94666263 117.70925713 187.98227692 C117.92399307 159.73105866 118.09363249 131.47889668 118.12248993 103.22681046 C118.12495419 101.16335976 118.12889636 99.09991627 118.13311768 97.03646851 C118.15874765 80.33258711 117.81763229 63.68464399 117 47 C116.36811768 46.98070435 115.73623535 46.96140869 115.08520508 46.94152832 C102.28997264 46.54156316 90.27803059 46.08284468 78.32421875 41.03515625 C72.97741976 38.86004352 67.65712443 37.7942137 62 36.75 C51.8934527 34.72705914 43.20369064 31.40249342 33.97216797 26.91503906 C31.02729808 25.54868943 27.99189599 24.46963903 24.9375 23.375 C19.33823453 21.25597974 14.70656914 18.69207897 10 15 C9.08476563 14.28328125 8.16953125 13.5665625 7.2265625 12.828125 C1.90455757 8.38566711 1.90455757 8.38566711 0 6 C-0.27734375 2.71875 -0.27734375 2.71875 0 0 Z " fill="#D49E3B" transform="translate(23,80)"/>
<path d="M0 0 C4.90665838 3.79357384 7.84732849 8.65672819 9.1875 14.6875 C9.92742066 23.87809348 9.23766933 31.10199173 3.4375 38.4375 C-1.06695571 43.34533981 -6.38424291 46.2135988 -13.0390625 46.92578125 C-21.4634879 47.18647194 -28.49528415 45.20923075 -34.75 39.375 C-39.28656839 34.77155345 -41.16839298 29.19737285 -41.28125 22.78881836 C-41.2709375 22.1160083 -41.260625 21.44319824 -41.25 20.75 C-41.24097656 20.04560791 -41.23195312 19.34121582 -41.22265625 18.61547852 C-40.95561282 10.61066626 -38.78765791 6.34551183 -33.125 0.875 C-23.03963816 -7.33575927 -10.67112782 -7.08361804 0 0 Z " fill="#D49D3B" transform="translate(182.8125,28.3125)"/>
<path d="M0 0 C0.75 2.1875 0.75 2.1875 1 5 C-1.91864707 10.17396525 -7.07837717 12.93976016 -12 16 C-11.67 14.68 -11.34 13.36 -11 12 C-11.66 11.67 -12.32 11.34 -13 11 C-12.195625 10.87625 -11.39125 10.7525 -10.5625 10.625 C-9.716875 10.41875 -8.87125 10.2125 -8 10 C-7.67 9.34 -7.34 8.68 -7 8 C-5.68 8 -4.36 8 -3 8 C-3 7.01 -3 6.02 -3 5 C-2.34 5 -1.68 5 -1 5 C-1 3.68 -1 2.36 -1 1 C-1.680625 1.28875 -2.36125 1.5775 -3.0625 1.875 C-6.32811789 3.12566217 -9.63673123 4.04813148 -13 5 C-13.99 5.495 -13.99 5.495 -15 6 C-15.66 5.34 -16.32 4.68 -17 4 C-11.06561592 0.92291196 -6.70126536 -0.48736475 0 0 Z " fill="#D0A251" transform="translate(310,80)"/>
<path d="M0 0 C-0.81082031 0.30292969 -1.62164062 0.60585937 -2.45703125 0.91796875 C-9.04302993 3.40976103 -15.4466282 6.05218667 -21.7578125 9.1796875 C-24 10 -24 10 -27 9 C-25.35 8.67 -23.7 8.34 -22 8 C-22 6.35 -22 4.7 -22 3 C-19.33333333 3 -16.66666667 3 -14 3 C-11.42025015 2.03672802 -8.94560363 0.91287238 -6.4375 -0.22265625 C-3.77925496 -1.07039786 -2.57873715 -0.94911853 0 0 Z " fill="#D0A353" transform="translate(289,102)"/>
<path d="M0 0 C1.9375 0.3125 1.9375 0.3125 4 1 C4.33 1.99 4.66 2.98 5 4 C6.65 4 8.3 4 10 4 C10.33 4.66 10.66 5.32 11 6 C10.67 6.66 10.34 7.32 10 8 C10.66 8 11.32 8 12 8 C12 8.99 12 9.98 12 11 C6.73487298 9.74639833 3.14505244 7.38299861 0 3 C0 2.01 0 1.02 0 0 Z " fill="#D0A047" transform="translate(146,62)"/>
<path d="M0 0 C2.64 0 5.28 0 8 0 C8.6875 2.3125 8.6875 2.3125 9 5 C7.5625 6.8125 7.5625 6.8125 6 8 C3.53199953 6.84826645 1.95216435 5.95216435 0 4 C0 2.68 0 1.36 0 0 Z " fill="#D79D3A" transform="translate(24,81)"/>
<path d="M0 0 C0.66 0.33 1.32 0.66 2 1 C-0.475 4.465 -0.475 4.465 -3 8 C-3.66 7.34 -4.32 6.68 -5 6 C-4.67 5.34 -4.34 4.68 -4 4 C-4.99 4.495 -4.99 4.495 -6 5 C-8.3329866 5.04022391 -10.66706666 5.04320247 -13 5 C-13 4.67 -13 4.34 -13 4 C-12.22914063 3.79503906 -11.45828125 3.59007813 -10.6640625 3.37890625 C-9.66117187 3.10949219 -8.65828125 2.84007813 -7.625 2.5625 C-6.62726563 2.29566406 -5.62953125 2.02882813 -4.6015625 1.75390625 C-2.04582299 1.09815644 -2.04582299 1.09815644 0 0 Z " fill="#D1A148" transform="translate(273,94)"/>
<path d="M0 0 C0 0.66 0 1.32 0 2 C-3.07617188 2.29296875 -3.07617188 2.29296875 -6.15234375 2.5859375 C-6.76207031 2.72257812 -7.37179688 2.85921875 -8 3 C-8.33 3.66 -8.66 4.32 -9 5 C-11.97 4.67 -14.94 4.34 -18 4 C-12.06787301 1.03393651 -6.67434076 -0.33371704 0 0 Z " fill="#D4A34F" transform="translate(160,95)"/>
<path d="M0 0 C-1.48302402 4.44907205 -5.08285501 6.74579392 -9 9 C-9.66 9 -10.32 9 -11 9 C-11 8.34 -11 7.68 -11 7 C-10.34 7 -9.68 7 -9 7 C-8.67 6.34 -8.34 5.68 -8 5 C-7.01 5 -6.02 5 -5 5 C-5.33 4.01 -5.66 3.02 -6 2 C-2.25 0 -2.25 0 0 0 Z " fill="#CAA24F" transform="translate(187,64)"/>
<path d="M0 0 C-1.09445838 0.86657116 -2.20097781 1.71792724 -3.3125 2.5625 C-3.92738281 3.03816406 -4.54226562 3.51382812 -5.17578125 4.00390625 C-5.77777344 4.33261719 -6.37976563 4.66132813 -7 5 C-7.99 4.67 -8.98 4.34 -10 4 C-9.25 2.0625 -9.25 2.0625 -8 0 C-4.99756227 -1.30105635 -3.07011437 -0.84139118 0 0 Z " fill="#D3A645" transform="translate(127,445)"/>
<path d="M0 0 C0.66 0.33 1.32 0.66 2 1 C1.67 1.99 1.34 2.98 1 4 C-0.99117408 4.69258229 -2.9921136 5.35747635 -5 6 C-6.83689476 7.49886871 -6.83689476 7.49886871 -8 9 C-8.66 8.34 -9.32 7.68 -10 7 C-6.7 4.69 -3.4 2.38 0 0 Z " fill="#CEA24F" transform="translate(102,433)"/>
<path d="M0 0 C0.33 0.99 0.66 1.98 1 3 C1.99 3.33 2.98 3.66 4 4 C3.67 5.65 3.34 7.3 3 9 C1.68 9.33 0.36 9.66 -1 10 C-0.67 6.7 -0.34 3.4 0 0 Z " fill="#D19A45" transform="translate(138,358)"/>
<path d="M0 0 C0 3 0 3 -2 6 C-2.33 6.99 -2.66 7.98 -3 9 C-3.33 8.34 -3.66 7.68 -4 7 C-5.32 7.99 -6.64 8.98 -8 10 C-8.66 9.67 -9.32 9.34 -10 9 C-6.7 6.03 -3.4 3.06 0 0 Z " fill="#CEA049" transform="translate(114,423)"/>
<path d="M0 0 C1.32 0 2.64 0 4 0 C4.66 1.65 5.32 3.3 6 5 C5.01 5.495 5.01 5.495 4 6 C4 5.34 4 4.68 4 4 C3.01 4 2.02 4 1 4 C0.34 4.66 -0.32 5.32 -1 6 C-1.042721 4.33388095 -1.04063832 2.66617115 -1 1 C-0.67 0.67 -0.34 0.34 0 0 Z " fill="#CC9A44" transform="translate(49,80)"/>
<path d="M0 0 C1.32 0 2.64 0 4 0 C4 0.99 4 1.98 4 3 C3.34 3 2.68 3 2 3 C2 3.66 2 4.32 2 5 C0.68 5 -0.64 5 -2 5 C-1.125 1.125 -1.125 1.125 0 0 Z " fill="#D99D34" transform="translate(44,87)"/>
<path d="M0 0 C-0.33 1.65 -0.66 3.3 -1 5 C-3.31 5 -5.62 5 -8 5 C-3.16129032 0 -3.16129032 0 0 0 Z " fill="#D0A148" transform="translate(92,441)"/>
<path d="M0 0 C0.33 0.66 0.66 1.32 1 2 C1.66 2.33 2.32 2.66 3 3 C1.35 5.64 -0.3 8.28 -2 11 C-3.13643966 7.59068103 -2.86747764 6.99664544 -1.5625 3.8125 C-1.13130859 2.73935547 -1.13130859 2.73935547 -0.69140625 1.64453125 C-0.46324219 1.10183594 -0.23507813 0.55914062 0 0 Z " fill="#CC9E4C" transform="translate(167,398)"/>
<path d="M0 0 C1.9375 0.3125 1.9375 0.3125 4 1 C4.33 1.99 4.66 2.98 5 4 C7.50447516 5.21869929 7.50447516 5.21869929 10 6 C10 6.66 10 7.32 10 8 C6.05205855 6.32971708 3.18203882 3.8204435 0 1 C0 0.67 0 0.34 0 0 Z " fill="#C59B59" transform="translate(30,91)"/>
<path d="M0 0 C-0.66 0.66 -1.32 1.32 -2 2 C-2.33 2.66 -2.66 3.32 -3 4 C-3.66 4 -4.32 4 -5 4 C-5 3.34 -5 2.68 -5 2 C-6.65 2.33 -8.3 2.66 -10 3 C-6.81859267 -0.48439851 -4.56758339 -1.41752588 0 0 Z " fill="#D2A04A" transform="translate(163,25)"/>
<path d="M0 0 C0.66 0.33 1.32 0.66 2 1 C-0.64 3.97 -3.28 6.94 -6 10 C-6 6.41087588 -5.33563446 5.89142971 -3 3.3125 C-2.443125 2.68988281 -1.88625 2.06726563 -1.3125 1.42578125 C-0.879375 0.95527344 -0.44625 0.48476563 0 0 Z " fill="#CBA052" transform="translate(151,28)"/>
<path d="M0 0 C-1 1.5 -1 1.5 -3 3 C-5.79873829 3.39491399 -8.13817454 3.227129 -11 3 C-11.66 2.34 -12.32 1.68 -13 1 C-8.62426048 0.40667939 -4.42471556 -0.13827236 0 0 Z " fill="#D4A451" transform="translate(256,99)"/>
<path d="M0 0 C0.99 0.33 1.98 0.66 3 1 C3 2.32 3 3.64 3 5 C1.68 5 0.36 5 -1 5 C-1.33 4.01 -1.66 3.02 -2 2 C-1.34 1.34 -0.68 0.68 0 0 Z " fill="#D5A545" transform="translate(74,109)"/>
<path d="M0 0 C0.33 0 0.66 0 1 0 C1 1.98 1 3.96 1 6 C-0.65 6.33 -2.3 6.66 -4 7 C-2.68 4.69 -1.36 2.38 0 0 Z " fill="#D19F46" transform="translate(124,409)"/>
</svg>
