<?xml version="1.0" encoding="UTF-8"?>
<svg xmlns="http://www.w3.org/2000/svg" xmlns:xlink="http://www.w3.org/1999/xlink" width="73px" height="100px" viewBox="0 0 73 99" version="1.1">
<g id="surface1">
<path style=" stroke:none;fill-rule:nonzero;fill:rgb(83.137256%,61.960787%,23.137255%);fill-opacity:1;" d="M 4.953125 17.144531 C 6.480469 16.964844 7.480469 17.449219 8.839844 18.125 C 9.351562 18.371094 9.78125 18.539062 10.335938 18.644531 C 10.335938 18.21875 10.335938 17.792969 10.335938 17.355469 C 10.691406 17.285156 11.046875 17.214844 11.414062 17.144531 C 11.585938 17.441406 11.753906 17.742188 11.925781 18.039062 C 12.023438 18.214844 12.125 18.390625 12.226562 18.574219 C 12.488281 19.070312 12.488281 19.070312 12.664062 19.6875 C 13.007812 20.300781 13.441406 20.402344 14.085938 20.632812 C 15.222656 20.945312 16.394531 21.074219 17.5625 21.226562 C 20.441406 21.613281 20.441406 21.613281 21.324219 21.886719 C 21.972656 22.074219 22.390625 22.09375 23.054688 22.003906 C 23.3125 21.972656 23.3125 21.972656 23.574219 21.941406 C 23.957031 21.882812 24.339844 21.816406 24.71875 21.742188 C 25.386719 21.648438 26.03125 21.617188 26.703125 21.601562 C 28.304688 21.558594 29.734375 21.359375 31.265625 20.894531 C 34.585938 19.890625 37.789062 19.980469 41.101562 21.011719 C 42.417969 21.414062 43.628906 21.53125 44.992188 21.578125 C 46.035156 21.617188 46.996094 21.757812 48.007812 21.980469 C 49.0625 22.195312 49.925781 22.09375 50.941406 21.789062 C 52.375 21.367188 53.832031 21.207031 55.3125 21.039062 C 56.667969 20.875 57.921875 20.574219 59.21875 20.144531 C 59.230469 19.964844 59.246094 19.789062 59.257812 19.605469 C 59.476562 18.675781 59.84375 17.84375 60.511719 17.144531 C 60.792969 17.144531 61.078125 17.144531 61.371094 17.144531 C 61.371094 17.636719 61.371094 18.132812 61.371094 18.644531 C 61.820312 18.472656 62.269531 18.304688 62.71875 18.132812 C 63.09375 17.992188 63.09375 17.992188 63.472656 17.847656 C 64.140625 17.597656 64.140625 17.597656 64.636719 17.324219 C 65.105469 17.109375 65.4375 17.097656 65.949219 17.117188 C 66.214844 17.125 66.480469 17.132812 66.753906 17.144531 C 66.917969 17.613281 66.917969 17.613281 66.96875 18.214844 C 66.355469 19.253906 65.363281 19.886719 64.386719 20.570312 C 64.238281 20.683594 64.089844 20.792969 63.933594 20.910156 C 62.855469 21.683594 61.816406 22.101562 60.546875 22.488281 C 59.824219 22.726562 59.152344 23.027344 58.464844 23.355469 C 56.335938 24.355469 54.230469 24.925781 51.929688 25.375 C 50.5625 25.65625 49.300781 26.054688 47.996094 26.5625 C 46.527344 27.09375 45.050781 27.0625 43.507812 27.09375 C 43.226562 27.101562 43.226562 27.101562 42.9375 27.113281 C 42.679688 27.117188 42.679688 27.117188 42.417969 27.125 C 41.90625 27.179688 41.90625 27.179688 41.558594 27.855469 C 41.519531 28.386719 41.5 28.890625 41.503906 29.421875 C 41.503906 29.582031 41.5 29.742188 41.5 29.90625 C 41.496094 30.449219 41.5 30.988281 41.5 31.527344 C 41.496094 31.914062 41.496094 32.300781 41.496094 32.6875 C 41.492188 33.519531 41.488281 34.355469 41.488281 35.1875 C 41.488281 36.511719 41.480469 37.835938 41.476562 39.160156 C 41.464844 41.976562 41.460938 44.792969 41.453125 47.613281 C 41.445312 50.636719 41.4375 53.664062 41.425781 56.691406 C 41.421875 57.789062 41.417969 58.886719 41.417969 59.984375 C 41.40625 71.207031 41.40625 71.207031 40.429688 75.949219 C 40.382812 76.183594 40.335938 76.414062 40.289062 76.652344 C 38.546875 84.953125 33.40625 91.46875 26.351562 96.109375 C 21.027344 99.441406 21.027344 99.441406 18.304688 99 C 17.703125 98.546875 17.503906 98.25 17.363281 97.511719 C 17.3125 96.742188 17.351562 96.359375 17.777344 95.6875 C 18.429688 95.011719 19.125 94.59375 19.933594 94.125 C 24.699219 91.246094 27.429688 87.480469 28.800781 82.152344 C 30.078125 76.863281 30.207031 71.332031 30.238281 65.914062 C 30.242188 65.429688 30.246094 64.945312 30.25 64.460938 C 30.261719 63.179688 30.269531 61.898438 30.277344 60.617188 C 30.285156 59.550781 30.292969 58.488281 30.300781 57.425781 C 30.347656 51.371094 30.382812 45.316406 30.390625 39.261719 C 30.390625 38.820312 30.390625 38.378906 30.390625 37.9375 C 30.398438 34.355469 30.324219 30.789062 30.148438 27.214844 C 30.011719 27.210938 29.875 27.207031 29.734375 27.203125 C 26.980469 27.117188 24.394531 27.019531 21.820312 25.9375 C 20.667969 25.46875 19.523438 25.242188 18.304688 25.019531 C 16.128906 24.585938 14.257812 23.871094 12.269531 22.910156 C 11.632812 22.617188 10.980469 22.386719 10.324219 22.152344 C 9.117188 21.699219 8.121094 21.148438 7.105469 20.355469 C 6.910156 20.203125 6.710938 20.050781 6.507812 19.890625 C 5.363281 18.941406 5.363281 18.941406 4.953125 18.429688 C 4.894531 17.726562 4.894531 17.726562 4.953125 17.144531 Z M 4.953125 17.144531 "/>
<path style=" stroke:none;fill-rule:nonzero;fill:rgb(83.137256%,61.56863%,23.137255%);fill-opacity:1;" d="M 39.367188 6.066406 C 40.421875 6.878906 41.054688 7.921875 41.34375 9.214844 C 41.503906 11.183594 41.355469 12.730469 40.105469 14.304688 C 39.136719 15.355469 37.992188 15.96875 36.558594 16.121094 C 34.746094 16.179688 33.230469 15.753906 31.882812 14.503906 C 30.90625 13.519531 30.5 12.324219 30.476562 10.949219 C 30.480469 10.804688 30.480469 10.660156 30.484375 10.511719 C 30.484375 10.363281 30.488281 10.210938 30.488281 10.054688 C 30.546875 8.339844 31.015625 7.425781 32.234375 6.253906 C 34.40625 4.496094 37.070312 4.550781 39.367188 6.066406 Z M 39.367188 6.066406 "/>
<path style=" stroke:none;fill-rule:nonzero;fill:rgb(81.568629%,63.529414%,31.764707%);fill-opacity:1;" d="M 66.753906 17.144531 C 66.917969 17.613281 66.917969 17.613281 66.96875 18.214844 C 66.34375 19.324219 65.230469 19.914062 64.171875 20.570312 C 64.242188 20.289062 64.3125 20.003906 64.386719 19.714844 C 64.246094 19.644531 64.101562 19.574219 63.957031 19.5 C 64.128906 19.472656 64.300781 19.445312 64.480469 19.417969 C 64.664062 19.375 64.84375 19.332031 65.03125 19.285156 C 65.101562 19.144531 65.175781 19.003906 65.246094 18.855469 C 65.53125 18.855469 65.816406 18.855469 66.109375 18.855469 C 66.109375 18.644531 66.109375 18.433594 66.109375 18.214844 C 66.25 18.214844 66.394531 18.214844 66.539062 18.214844 C 66.539062 17.929688 66.539062 17.648438 66.539062 17.355469 C 66.394531 17.417969 66.246094 17.480469 66.09375 17.542969 C 65.390625 17.8125 64.679688 18.011719 63.957031 18.214844 C 63.742188 18.320312 63.742188 18.320312 63.523438 18.429688 C 63.382812 18.289062 63.242188 18.144531 63.09375 18 C 64.371094 17.339844 65.3125 17.039062 66.753906 17.144531 Z M 66.753906 17.144531 "/>
<path style=" stroke:none;fill-rule:nonzero;fill:rgb(81.568629%,63.921571%,32.549021%);fill-opacity:1;" d="M 62.234375 21.855469 C 62.058594 21.921875 61.882812 21.988281 61.703125 22.054688 C 60.285156 22.585938 58.90625 23.152344 57.546875 23.824219 C 57.066406 24 57.066406 24 56.417969 23.785156 C 56.773438 23.714844 57.128906 23.644531 57.496094 23.570312 C 57.496094 23.21875 57.496094 22.863281 57.496094 22.5 C 58.070312 22.5 58.644531 22.5 59.21875 22.5 C 59.773438 22.292969 60.308594 22.054688 60.847656 21.808594 C 61.417969 21.628906 61.679688 21.652344 62.234375 21.855469 Z M 62.234375 21.855469 "/>
<path style=" stroke:none;fill-rule:nonzero;fill:rgb(81.568629%,62.7451%,27.843139%);fill-opacity:1;" d="M 31.441406 13.285156 C 31.855469 13.351562 31.855469 13.351562 32.300781 13.5 C 32.371094 13.710938 32.441406 13.925781 32.515625 14.144531 C 32.871094 14.144531 33.226562 14.144531 33.59375 14.144531 C 33.664062 14.285156 33.734375 14.425781 33.808594 14.570312 C 33.738281 14.710938 33.667969 14.855469 33.59375 15 C 33.734375 15 33.878906 15 34.023438 15 C 34.023438 15.210938 34.023438 15.425781 34.023438 15.644531 C 32.890625 15.375 32.117188 14.867188 31.441406 13.929688 C 31.441406 13.714844 31.441406 13.503906 31.441406 13.285156 Z M 31.441406 13.285156 "/>
<path style=" stroke:none;fill-rule:nonzero;fill:rgb(84.313726%,61.56863%,22.745098%);fill-opacity:1;" d="M 5.167969 17.355469 C 5.738281 17.355469 6.304688 17.355469 6.890625 17.355469 C 7.039062 17.851562 7.039062 17.851562 7.105469 18.429688 C 6.796875 18.816406 6.796875 18.816406 6.460938 19.070312 C 5.929688 18.824219 5.589844 18.632812 5.167969 18.214844 C 5.167969 17.929688 5.167969 17.648438 5.167969 17.355469 Z M 5.167969 17.355469 "/>
<path style=" stroke:none;fill-rule:nonzero;fill:rgb(81.960785%,63.137257%,28.235295%);fill-opacity:1;" d="M 58.789062 20.144531 C 58.929688 20.214844 59.070312 20.285156 59.21875 20.355469 C 58.683594 21.101562 58.683594 21.101562 58.140625 21.855469 C 58 21.714844 57.855469 21.574219 57.710938 21.429688 C 57.78125 21.289062 57.851562 21.144531 57.925781 21 C 57.714844 21.105469 57.714844 21.105469 57.496094 21.214844 C 56.992188 21.222656 56.492188 21.222656 55.988281 21.214844 C 55.988281 21.144531 55.988281 21.074219 55.988281 21 C 56.152344 20.957031 56.320312 20.914062 56.492188 20.867188 C 56.707031 20.808594 56.921875 20.75 57.144531 20.691406 C 57.359375 20.636719 57.574219 20.578125 57.796875 20.519531 C 58.347656 20.378906 58.347656 20.378906 58.789062 20.144531 Z M 58.789062 20.144531 "/>
<path style=" stroke:none;fill-rule:nonzero;fill:rgb(83.137256%,63.921571%,30.980393%);fill-opacity:1;" d="M 34.453125 20.355469 C 34.453125 20.5 34.453125 20.640625 34.453125 20.785156 C 33.792969 20.847656 33.792969 20.847656 33.128906 20.910156 C 33 20.941406 32.867188 20.96875 32.730469 21 C 32.660156 21.140625 32.589844 21.28125 32.515625 21.429688 C 31.875 21.359375 31.238281 21.289062 30.578125 21.214844 C 31.855469 20.578125 33.015625 20.285156 34.453125 20.355469 Z M 34.453125 20.355469 "/>
<path style=" stroke:none;fill-rule:nonzero;fill:rgb(79.215688%,63.529414%,30.980393%);fill-opacity:1;" d="M 40.269531 13.714844 C 39.949219 14.667969 39.175781 15.160156 38.332031 15.644531 C 38.1875 15.644531 38.046875 15.644531 37.898438 15.644531 C 37.898438 15.5 37.898438 15.359375 37.898438 15.214844 C 38.042969 15.214844 38.183594 15.214844 38.332031 15.214844 C 38.402344 15.074219 38.472656 14.929688 38.546875 14.785156 C 38.757812 14.785156 38.972656 14.785156 39.191406 14.785156 C 39.121094 14.574219 39.050781 14.363281 38.976562 14.144531 C 39.785156 13.714844 39.785156 13.714844 40.269531 13.714844 Z M 40.269531 13.714844 "/>
<path style=" stroke:none;fill-rule:nonzero;fill:rgb(82.745099%,65.098041%,27.058825%);fill-opacity:1;" d="M 27.347656 95.355469 C 27.113281 95.542969 26.875 95.726562 26.636719 95.90625 C 26.503906 96.007812 26.371094 96.109375 26.234375 96.214844 C 26.105469 96.285156 25.972656 96.355469 25.839844 96.429688 C 25.628906 96.359375 25.414062 96.289062 25.195312 96.214844 C 25.355469 95.800781 25.355469 95.800781 25.625 95.355469 C 26.273438 95.078125 26.6875 95.175781 27.347656 95.355469 Z M 27.347656 95.355469 "/>
<path style=" stroke:none;fill-rule:nonzero;fill:rgb(80.784315%,63.529414%,30.980393%);fill-opacity:1;" d="M 21.964844 92.785156 C 22.105469 92.855469 22.25 92.925781 22.394531 93 C 22.324219 93.210938 22.253906 93.425781 22.179688 93.644531 C 21.75 93.792969 21.320312 93.933594 20.886719 94.070312 C 20.492188 94.394531 20.492188 94.394531 20.242188 94.714844 C 20.101562 94.574219 19.957031 94.429688 19.8125 94.285156 C 20.523438 93.789062 21.234375 93.296875 21.964844 92.785156 Z M 21.964844 92.785156 "/>
<path style=" stroke:none;fill-rule:nonzero;fill:rgb(81.960785%,60.392159%,27.058825%);fill-opacity:1;" d="M 29.71875 76.714844 C 29.789062 76.925781 29.859375 77.136719 29.933594 77.355469 C 30.144531 77.429688 30.359375 77.5 30.578125 77.570312 C 30.507812 77.925781 30.4375 78.277344 30.363281 78.644531 C 30.078125 78.714844 29.792969 78.785156 29.5 78.855469 C 29.574219 78.148438 29.644531 77.441406 29.71875 76.714844 Z M 29.71875 76.714844 "/>
<path style=" stroke:none;fill-rule:nonzero;fill:rgb(80.784315%,62.7451%,28.627452%);fill-opacity:1;" d="M 24.546875 90.644531 C 24.546875 91.285156 24.546875 91.285156 24.117188 91.929688 C 24.046875 92.140625 23.976562 92.351562 23.902344 92.570312 C 23.832031 92.429688 23.761719 92.289062 23.6875 92.144531 C 23.402344 92.355469 23.117188 92.566406 22.824219 92.785156 C 22.683594 92.714844 22.542969 92.644531 22.394531 92.570312 C 23.105469 91.933594 23.816406 91.296875 24.546875 90.644531 Z M 24.546875 90.644531 "/>
<path style=" stroke:none;fill-rule:nonzero;fill:rgb(80.000001%,60.392159%,26.666668%);fill-opacity:1;" d="M 10.550781 17.144531 C 10.835938 17.144531 11.121094 17.144531 11.414062 17.144531 C 11.554688 17.496094 11.695312 17.851562 11.84375 18.214844 C 11.628906 18.320312 11.628906 18.320312 11.414062 18.429688 C 11.414062 18.289062 11.414062 18.144531 11.414062 18 C 11.199219 18 10.988281 18 10.765625 18 C 10.625 18.140625 10.484375 18.28125 10.335938 18.429688 C 10.328125 18.070312 10.328125 17.714844 10.335938 17.355469 C 10.40625 17.285156 10.476562 17.214844 10.550781 17.144531 Z M 10.550781 17.144531 "/>
<path style=" stroke:none;fill-rule:nonzero;fill:rgb(85.09804%,61.56863%,20.392157%);fill-opacity:1;" d="M 9.476562 18.644531 C 9.757812 18.644531 10.042969 18.644531 10.335938 18.644531 C 10.335938 18.855469 10.335938 19.066406 10.335938 19.285156 C 10.195312 19.285156 10.050781 19.285156 9.90625 19.285156 C 9.90625 19.425781 9.90625 19.570312 9.90625 19.714844 C 9.621094 19.714844 9.335938 19.714844 9.042969 19.714844 C 9.234375 18.882812 9.234375 18.882812 9.476562 18.644531 Z M 9.476562 18.644531 "/>
<path style=" stroke:none;fill-rule:nonzero;fill:rgb(81.568629%,63.137257%,28.235295%);fill-opacity:1;" d="M 19.8125 94.5 C 19.738281 94.855469 19.667969 95.207031 19.597656 95.570312 C 19.097656 95.570312 18.601562 95.570312 18.089844 95.570312 C 19.128906 94.5 19.128906 94.5 19.8125 94.5 Z M 19.8125 94.5 "/>
<path style=" stroke:none;fill-rule:nonzero;fill:rgb(80.000001%,61.960787%,29.803923%);fill-opacity:1;" d="M 35.960938 85.285156 C 36.03125 85.425781 36.105469 85.570312 36.175781 85.714844 C 36.320312 85.785156 36.460938 85.855469 36.609375 85.929688 C 36.253906 86.496094 35.898438 87.058594 35.53125 87.644531 C 35.285156 86.914062 35.34375 86.785156 35.625 86.101562 C 35.71875 85.871094 35.71875 85.871094 35.8125 85.636719 C 35.863281 85.523438 35.910156 85.40625 35.960938 85.285156 Z M 35.960938 85.285156 "/>
<path style=" stroke:none;fill-rule:nonzero;fill:rgb(77.254903%,60.784316%,34.901962%);fill-opacity:1;" d="M 6.460938 19.5 C 6.878906 19.566406 6.878906 19.566406 7.320312 19.714844 C 7.394531 19.925781 7.464844 20.136719 7.535156 20.355469 C 8.078125 20.617188 8.078125 20.617188 8.613281 20.785156 C 8.613281 20.925781 8.613281 21.070312 8.613281 21.214844 C 7.761719 20.855469 7.144531 20.320312 6.460938 19.714844 C 6.460938 19.644531 6.460938 19.574219 6.460938 19.5 Z M 6.460938 19.5 "/>
<path style=" stroke:none;fill-rule:nonzero;fill:rgb(82.352942%,62.7451%,29.019609%);fill-opacity:1;" d="M 35.101562 5.355469 C 34.957031 5.5 34.816406 5.640625 34.667969 5.785156 C 34.597656 5.925781 34.527344 6.070312 34.453125 6.214844 C 34.3125 6.214844 34.171875 6.214844 34.023438 6.214844 C 34.023438 6.074219 34.023438 5.929688 34.023438 5.785156 C 33.667969 5.855469 33.3125 5.925781 32.945312 6 C 33.632812 5.253906 34.117188 5.054688 35.101562 5.355469 Z M 35.101562 5.355469 "/>
<path style=" stroke:none;fill-rule:nonzero;fill:rgb(79.607844%,62.7451%,32.156864%);fill-opacity:1;" d="M 32.515625 6 C 32.660156 6.070312 32.800781 6.140625 32.945312 6.214844 C 32.378906 6.851562 31.808594 7.488281 31.222656 8.144531 C 31.222656 7.375 31.367188 7.261719 31.871094 6.710938 C 31.988281 6.578125 32.109375 6.441406 32.234375 6.304688 C 32.328125 6.203125 32.421875 6.105469 32.515625 6 Z M 32.515625 6 "/>
<path style=" stroke:none;fill-rule:nonzero;fill:rgb(83.137256%,64.313728%,31.764707%);fill-opacity:1;" d="M 55.125 21.214844 C 54.910156 21.535156 54.910156 21.535156 54.480469 21.855469 C 53.878906 21.941406 53.375 21.90625 52.757812 21.855469 C 52.617188 21.714844 52.472656 21.574219 52.328125 21.429688 C 53.269531 21.300781 54.175781 21.183594 55.125 21.214844 Z M 55.125 21.214844 "/>
<path style=" stroke:none;fill-rule:nonzero;fill:rgb(83.529413%,64.705884%,27.058825%);fill-opacity:1;" d="M 15.933594 23.355469 C 16.148438 23.429688 16.363281 23.5 16.582031 23.570312 C 16.582031 23.855469 16.582031 24.136719 16.582031 24.429688 C 16.296875 24.429688 16.011719 24.429688 15.71875 24.429688 C 15.648438 24.214844 15.578125 24.003906 15.503906 23.785156 C 15.648438 23.644531 15.789062 23.503906 15.933594 23.355469 Z M 15.933594 23.355469 "/>
<path style=" stroke:none;fill-rule:nonzero;fill:rgb(81.960785%,62.352943%,27.450982%);fill-opacity:1;" d="M 26.703125 87.644531 C 26.773438 87.644531 26.84375 87.644531 26.917969 87.644531 C 26.917969 88.066406 26.917969 88.492188 26.917969 88.929688 C 26.5625 89 26.207031 89.070312 25.839844 89.144531 C 26.125 88.648438 26.410156 88.152344 26.703125 87.644531 Z M 26.703125 87.644531 "/>
</g>
</svg>
