<svg xmlns="http://www.w3.org/2000/svg" width="292" height="441" viewBox="0 0 292 441" version="1.1"><path d="M 136 4.314 C 130.529 6.048, 123.437 13.789, 121.575 20.059 C 119.615 26.660, 119.613 28.333, 121.556 34.878 C 124.654 45.308, 133.757 52, 144.848 52 C 155.001 52, 162.520 47.481, 167.308 38.500 C 170.313 32.863, 170.288 22.105, 167.255 16.357 C 164.531 11.195, 157.771 5.309, 153.065 4.002 C 148.519 2.739, 140.506 2.885, 136 4.314 M 2.362 60.500 C 1.415 62.968, 2.593 64.628, 8.518 69.174 C 11.620 71.553, 15.780 74.749, 17.762 76.276 C 19.745 77.802, 23.872 79.773, 26.934 80.655 C 29.995 81.537, 35.425 83.723, 39 85.511 C 47.087 89.558, 59.170 93.385, 69 95.014 C 73.125 95.697, 78.967 97.345, 81.983 98.676 C 89.674 102.071, 94.839 103.052, 106.857 103.404 C 115.746 103.664, 117.525 103.994, 118.713 105.605 C 119.897 107.209, 120.048 123.946, 119.697 214.500 C 119.268 325.489, 119.258 325.778, 114.962 353 C 110.260 382.799, 97.913 402.446, 74.366 417.599 C 62.016 425.546, 60 427.569, 60 432.013 C 60 437.107, 63.710 440.500, 69.125 440.358 C 74.713 440.211, 97.131 428.795, 108.276 420.420 C 129.177 404.713, 143.056 388.598, 152.990 368.500 C 162.575 349.108, 167.010 329.696, 168.982 298.500 C 169.538 289.700, 169.995 243.099, 169.996 194.941 C 169.999 123.257, 170.243 107.049, 171.343 105.546 C 172.474 103.999, 174.391 103.660, 183.533 103.393 C 196.214 103.021, 198.174 102.659, 207.500 98.956 C 211.350 97.427, 218.357 95.462, 223.071 94.589 C 233.212 92.712, 243.215 89.433, 251.500 85.272 C 254.800 83.614, 259.975 81.540, 263 80.663 C 268.279 79.132, 270.069 78.090, 278.639 71.557 C 285.679 66.190, 288 63.650, 288 61.313 C 288 57.870, 284.338 58.304, 273.759 63 C 268.803 65.200, 264.143 67, 263.404 67 C 262.484 67, 262.129 65.850, 262.280 63.359 C 262.407 61.255, 261.995 59.539, 261.304 59.294 C 259.885 58.790, 255.812 64.962, 254.078 70.244 C 252.931 73.737, 252.400 74.118, 246.174 75.924 C 242.503 76.989, 235 78.367, 229.500 78.986 C 224 79.604, 217.313 80.813, 214.641 81.672 C 209.730 83.250, 208.028 83.203, 193.500 81.086 C 189.650 80.524, 183.983 80.051, 180.907 80.033 C 177.830 80.015, 172.880 79.168, 169.907 78.151 C 155.058 73.071, 138.422 72.815, 122.735 77.425 C 117.914 78.841, 111.614 80.009, 108.735 80.020 C 105.856 80.031, 100.575 80.494, 97 81.049 C 83.090 83.208, 80.371 83.284, 75.387 81.647 C 72.699 80.765, 66 79.550, 60.500 78.948 C 49.123 77.702, 40.271 75.510, 37.840 73.337 C 36.927 72.521, 35.896 70.724, 35.550 69.343 C 34.581 65.482, 30.036 58.818, 28.696 59.294 C 28.005 59.539, 27.593 61.255, 27.720 63.359 C 27.871 65.850, 27.516 67, 26.596 67 C 25.857 67, 21.197 65.200, 16.241 63 C 6.584 58.714, 3.276 58.118, 2.362 60.500" stroke="none" fill="#d49d3f" fill-rule="evenodd"/><path d="M 0 220.500 L 0 441 33.750 440.921 C 52.313 440.878, 66.825 440.595, 66 440.294 C 62.446 438.995, 60 435.619, 60 432.013 C 60 427.569, 62.016 425.546, 74.366 417.599 C 97.913 402.446, 110.260 382.799, 114.962 353 C 119.258 325.778, 119.268 325.489, 119.697 214.500 C 120.048 123.946, 119.897 107.209, 118.713 105.605 C 117.525 103.994, 115.746 103.664, 106.857 103.404 C 94.839 103.052, 89.674 102.071, 81.983 98.676 C 78.967 97.345, 73.125 95.697, 69 95.014 C 59.170 93.385, 47.087 89.558, 39 85.511 C 35.425 83.723, 29.996 81.538, 26.936 80.656 C 23.876 79.774, 19.601 77.708, 17.436 76.064 C 4.590 66.310, 2.500 64.335, 2.500 61.943 C 2.500 58.143, 5.848 58.387, 16.094 62.935 C 21.131 65.171, 25.857 67, 26.596 67 C 27.516 67, 27.871 65.850, 27.720 63.359 C 27.593 61.255, 28.005 59.539, 28.696 59.294 C 30.036 58.818, 34.581 65.482, 35.550 69.343 C 35.896 70.724, 36.927 72.521, 37.840 73.337 C 40.271 75.510, 49.123 77.702, 60.500 78.948 C 66 79.550, 72.699 80.765, 75.387 81.647 C 80.371 83.284, 83.090 83.208, 97 81.049 C 100.575 80.494, 105.856 80.031, 108.735 80.020 C 111.614 80.009, 117.914 78.841, 122.735 77.425 C 138.422 72.815, 155.058 73.071, 169.907 78.151 C 172.880 79.168, 177.830 80.015, 180.907 80.033 C 183.983 80.051, 189.650 80.524, 193.500 81.086 C 208.028 83.203, 209.730 83.250, 214.641 81.672 C 217.313 80.813, 224 79.604, 229.500 78.986 C 235 78.367, 242.503 76.989, 246.174 75.924 C 252.400 74.118, 252.931 73.737, 254.078 70.244 C 255.812 64.962, 259.885 58.790, 261.304 59.294 C 261.995 59.539, 262.407 61.255, 262.280 63.359 C 262.129 65.850, 262.484 67, 263.404 67 C 264.143 67, 268.803 65.200, 273.759 63 C 284.338 58.304, 288 57.870, 288 61.313 C 288 63.650, 285.679 66.190, 278.639 71.557 C 270.069 78.090, 268.279 79.132, 263 80.663 C 259.975 81.540, 254.800 83.614, 251.500 85.272 C 243.215 89.433, 233.212 92.712, 223.071 94.589 C 218.357 95.462, 211.350 97.427, 207.500 98.956 C 198.174 102.659, 196.214 103.021, 183.533 103.393 C 174.391 103.660, 172.474 103.999, 171.343 105.546 C 170.243 107.049, 169.999 123.257, 169.996 194.941 C 169.995 243.099, 169.538 289.700, 168.982 298.500 C 167.800 317.187, 165.100 334.846, 161.489 347.500 C 158.030 359.624, 148.490 378.601, 140.581 389.092 C 125.086 409.646, 96.813 431.089, 74.698 439.059 C 69.568 440.908, 70.960 440.930, 181 440.716 L 292.500 440.500 292.752 220.250 L 293.004 0 146.502 0 L 0 0 0 220.500 M 0.491 221 C 0.491 342.275, 0.608 391.888, 0.750 331.250 C 0.892 270.613, 0.892 171.388, 0.750 110.750 C 0.608 50.113, 0.491 99.725, 0.491 221 M 136 4.314 C 130.529 6.048, 123.437 13.789, 121.575 20.059 C 119.615 26.660, 119.613 28.333, 121.556 34.878 C 124.654 45.308, 133.757 52, 144.848 52 C 155.001 52, 162.520 47.481, 167.308 38.500 C 170.313 32.863, 170.288 22.105, 167.255 16.357 C 164.531 11.195, 157.771 5.309, 153.065 4.002 C 148.519 2.739, 140.506 2.885, 136 4.314" stroke="none" fill="#fbfbfb" fill-rule="evenodd"/></svg>